<?xml version="1.0" standalone="no"?>
<!DOCTYPE svg PUBLIC "-//W3C//DTD SVG 20010904//EN"
 "http://www.w3.org/TR/2001/REC-SVG-20010904/DTD/svg10.dtd">
<svg version="1.0" xmlns="http://www.w3.org/2000/svg"
 width="1000.000000pt" height="1000.000000pt" viewBox="0 0 1000.000000 1000.000000"
 preserveAspectRatio="xMidYMid meet">
<metadata>
Created by potrace 1.14, written by Peter Selinger 2001-2017
</metadata>
<g transform="translate(0.000000,1000.000000) scale(0.100000,-0.100000)"
fill="#000000" stroke="none">
<path d="M4708 9980 c-998 -63 -1922 -403 -2713 -999 -365 -275 -730 -642
-1000 -1006 -775 -1042 -1110 -2331 -945 -3632 93 -729 359 -1447 768 -2073
200 -307 385 -534 652 -800 310 -311 602 -539 968 -759 1442 -866 3241 -942
4757 -201 569 278 1098 679 1523 1155 315 352 575 740 778 1160 422 874 577
1837 453 2820 -118 933 -509 1821 -1130 2565 -133 160 -428 457 -589 592 -808
679 -1746 1070 -2805 1168 -157 14 -556 20 -717 10z m677 -70 c835 -68 1615
-335 2310 -788 469 -306 899 -709 1247 -1168 392 -519 687 -1140 844 -1781
102 -416 138 -723 138 -1178 0 -361 -12 -509 -64 -823 -341 -2035 -1941 -3657
-3970 -4026 -481 -87 -1027 -102 -1520 -40 -827 103 -1651 438 -2325 944 -361
271 -709 618 -987 986 -385 508 -681 1128 -838 1754 -363 1444 -53 2982 836
4162 274 363 643 731 998 996 740 551 1614 881 2546 961 137 12 644 12 785 1z"/>
<path d="M4706 9779 c-1182 -77 -2263 -566 -3096 -1399 -753 -752 -1233 -1732
-1364 -2780 -49 -392 -49 -816 -1 -1205 90 -718 346 -1416 742 -2020 283 -430
622 -804 1019 -1121 1019 -814 2303 -1176 3599 -1013 1327 166 2543 897 3311
1990 197 282 423 696 540 994 296 753 399 1571 298 2375 -49 393 -153 797
-305 1180 -73 186 -261 556 -368 727 -384 614 -859 1104 -1441 1488 -656 433
-1398 695 -2177 770 -199 19 -575 26 -757 14z m-409 -2283 c29 -14 72 -45 96
-70 43 -45 44 -46 61 -27 27 30 144 87 212 105 79 20 228 21 307 0 109 -28
186 -73 273 -159 125 -124 179 -252 177 -430 0 -108 -37 -227 -97 -318 -80
-121 -228 -225 -366 -258 -30 -8 -98 -13 -150 -13 -221 2 -429 131 -524 326
-37 75 -66 172 -66 219 0 26 -1 27 -72 31 -87 4 -149 31 -206 89 -161 160 -98
438 115 515 64 23 180 18 240 -10z m3386 -442 c76 -39 118 -106 118 -188 0
-45 -36 -138 -299 -759 l-300 -708 266 -562 c228 -482 266 -569 267 -609 0
-50 -20 -86 -69 -122 -26 -20 -42 -21 -399 -24 -370 -3 -372 -2 -417 20 -103
53 -108 197 -8 258 30 18 51 20 266 20 127 0 232 4 232 9 0 4 -37 84 -81 177
-45 93 -113 234 -151 314 l-69 145 -80 -190 c-44 -104 -90 -208 -103 -230 -48
-81 -162 -115 -252 -76 -91 41 -134 103 -134 194 0 49 43 155 460 1133 254
593 472 1097 485 1120 54 92 173 126 268 78z m-3573 -645 c114 -26 250 -134
301 -240 15 -30 117 -301 227 -604 110 -302 204 -558 207 -567 6 -15 50 -17
533 -20 518 -3 528 -4 582 -26 54 -21 116 -75 139 -119 24 -48 33 -121 21
-178 -15 -70 -52 -114 -122 -146 l-53 -24 -674 -3 c-748 -3 -732 -4 -824 63
-38 29 -96 108 -307 425 -143 215 -264 390 -268 390 -17 0 -161 -158 -209
-230 -163 -244 -266 -579 -303 -990 -6 -69 -13 -144 -16 -167 l-5 -43 -570 0
c-562 0 -569 0 -569 20 0 38 51 285 90 436 224 867 632 1468 1265 1863 265
165 381 199 555 160z m2082 -2031 c101 -47 218 -176 218 -239 0 -59 2 -59
-380 -59 -380 0 -380 0 -380 57 0 35 50 111 109 166 87 82 158 108 286 104 73
-2 101 -7 147 -29z m76 -640 c47 -22 83 -64 101 -117 21 -64 17 -71 -39 -71
-49 0 -50 1 -66 40 -22 55 -57 80 -110 80 -95 0 -139 -81 -139 -255 0 -128 18
-189 68 -231 28 -23 38 -26 93 -22 85 5 94 15 94 99 l0 69 -60 0 -60 0 0 45 0
45 115 0 115 0 0 -133 c0 -126 -1 -135 -22 -154 -56 -51 -167 -78 -253 -62
-74 14 -124 54 -165 134 l-35 68 0 142 0 142 35 69 c24 46 48 77 75 96 69 49
169 55 253 16z m-4022 -14 c77 -38 104 -82 104 -172 0 -36 -6 -75 -14 -91 -16
-30 -80 -91 -96 -91 -6 0 21 -63 60 -140 38 -77 70 -145 70 -150 0 -7 -22 -10
-57 -8 l-58 3 -64 133 -64 132 -59 0 -58 0 0 -135 0 -135 -55 0 -55 0 0 346 0
347 144 -5 c134 -4 147 -6 202 -34z m644 -14 l0 -50 -75 0 -75 0 0 -245 0
-245 75 0 75 0 0 -50 0 -50 -200 0 -200 0 0 50 0 50 70 0 70 0 0 245 0 245
-70 0 -70 0 0 50 0 50 200 0 200 0 0 -50z m541 -290 c59 -184 108 -339 108
-343 1 -4 -25 -7 -56 -5 l-57 3 -24 78 -24 77 -107 0 -107 0 -23 -80 -24 -80
-59 0 c-48 0 -59 3 -55 14 3 8 52 155 108 328 56 172 106 321 111 331 7 14 19
17 55 15 l47 -3 107 -335z m405 108 l109 -231 3 231 2 232 55 0 55 0 0 -345 0
-345 -54 0 -54 0 -108 230 -109 231 -3 -231 -2 -231 -58 3 -57 3 -3 330 c-1
181 0 336 3 342 3 8 24 13 58 13 l54 0 109 -232z m1104 120 c18 -62 37 -129
43 -148 10 -34 11 -31 56 110 l47 145 69 0 70 0 0 -340 0 -340 -53 -3 -54 -3
4 260 c1 142 1 258 0 256 -2 -2 -25 -70 -52 -152 -41 -128 -51 -148 -70 -151
-12 -2 -27 1 -32 6 -5 5 -29 74 -53 153 l-44 144 0 -257 -1 -258 -50 0 -50 0
0 345 0 345 68 0 69 0 33 -112z m830 62 l0 -50 -75 0 -75 0 0 -245 0 -245 75
0 75 0 0 -50 0 -50 -200 0 -200 0 0 50 0 50 70 0 70 0 0 245 0 245 -70 0 -70
0 0 50 0 50 200 0 200 0 0 -50z m840 -215 c4 -182 9 -267 18 -282 34 -60 111
-71 164 -24 l33 29 9 272 9 271 51 -3 51 -3 3 -239 c2 -191 -1 -250 -13 -292
-30 -103 -104 -157 -215 -157 -101 0 -176 49 -209 136 -18 47 -24 177 -16 371
l7 187 52 -3 51 -3 5 -260z m915 215 l0 -45 -162 -3 -163 -2 0 -95 0 -95 140
0 140 0 0 -45 0 -45 -140 0 -140 0 0 -105 0 -105 163 -2 162 -3 0 -45 0 -45
-220 0 -220 0 -3 330 c-1 181 0 336 3 343 3 10 53 12 222 10 l218 -3 0 -45z
m253 -247 l2 -293 160 0 160 0 0 -50 0 -50 -217 2 -218 3 -3 330 c-1 181 0
336 3 343 3 9 21 12 57 10 l53 -3 3 -292z m-5128 -708 l0 -145 30 0 c25 0 30
-4 30 -25 0 -26 0 -26 -82 -23 -75 3 -83 5 -83 23 0 14 8 21 28 23 l27 3 0
120 0 119 -25 0 c-20 0 -25 5 -25 25 0 23 3 25 50 25 l50 0 0 -145z m320 0 l0
-145 30 0 c25 0 30 -4 30 -25 0 -25 -1 -25 -85 -25 -84 0 -85 0 -85 25 0 21 5
25 30 25 l30 0 0 120 0 120 -30 0 c-25 0 -30 4 -30 25 0 24 3 25 55 25 l55 0
0 -145z m663 134 c20 -5 37 -13 37 -17 -1 -22 -20 -30 -74 -28 -46 1 -61 -3
-70 -16 -17 -27 3 -50 60 -71 70 -26 89 -48 89 -103 0 -79 -62 -110 -174 -88
-31 7 -38 18 -23 42 6 9 20 10 53 4 62 -12 89 0 89 36 0 35 -9 43 -73 66 -54
20 -77 47 -77 92 0 73 70 109 163 83z m1167 -84 c0 -89 1 -95 20 -95 14 0 30
15 48 45 22 35 33 44 55 45 l29 0 -23 -37 c-12 -21 -29 -46 -37 -55 -12 -15
-12 -20 5 -45 11 -15 30 -45 42 -65 l23 -38 -31 0 c-27 0 -35 7 -59 50 -20 37
-33 50 -49 50 -21 0 -23 -5 -23 -50 0 -47 -2 -50 -25 -50 l-25 0 0 170 0 170
25 0 c25 0 25 0 25 -95z m1970 -50 l0 -145 30 0 c25 0 30 -4 30 -25 0 -25 -1
-25 -85 -25 -84 0 -85 0 -85 25 0 21 5 25 30 25 l30 0 0 119 0 120 -27 3 c-20
2 -29 9 -31 26 -3 21 0 22 52 22 l56 0 0 -145z m-4680 115 c0 -18 -7 -20 -70
-20 l-70 0 0 -60 0 -60 60 0 c53 0 60 -2 60 -20 0 -18 -7 -20 -60 -20 l-60 0
0 -65 c0 -63 -1 -65 -25 -65 l-25 0 0 165 0 165 95 0 c88 0 95 -1 95 -20z
m3439 5 c37 -18 51 -60 51 -147 0 -126 -38 -168 -155 -168 l-55 0 0 165 0 165
65 0 c39 0 78 -6 94 -15z m-1639 -45 c0 -29 2 -30 45 -30 38 0 45 -3 45 -20 0
-17 -7 -20 -45 -20 l-45 0 0 -75 c0 -53 4 -75 13 -76 6 -1 26 -2 42 -3 23 -1
30 -6 30 -21 0 -17 -8 -20 -50 -23 -27 -1 -56 2 -63 6 -17 12 -31 73 -32 140
0 39 -4 52 -15 52 -8 0 -15 9 -15 20 0 11 7 20 15 20 10 0 15 10 15 30 0 27 3
30 30 30 27 0 30 -3 30 -30z m390 -46 c11 -11 16 -43 18 -119 l4 -105 -26 0
c-14 0 -26 5 -26 10 0 7 -6 7 -19 0 -56 -30 -131 2 -131 56 0 54 41 84 116 84
37 0 42 10 18 35 -13 12 -27 15 -58 10 -22 -4 -45 -8 -51 -9 -5 0 -11 9 -13
21 -2 17 3 24 20 27 13 3 32 7 43 10 31 7 88 -4 105 -20z m299 20 c24 -5 31
-12 31 -31 0 -23 -2 -24 -42 -18 -60 9 -83 -10 -83 -68 0 -60 16 -77 76 -77
46 0 49 -2 49 -25 0 -24 -3 -25 -61 -25 -54 0 -64 3 -90 29 -26 26 -29 37 -29
89 0 100 53 145 149 126z m1247 -4 c8 0 26 -11 39 -25 19 -18 25 -35 25 -70
l0 -45 -70 0 c-63 0 -70 -2 -70 -20 0 -28 34 -42 85 -34 41 6 45 4 45 -14 0
-25 -18 -32 -80 -32 -37 0 -56 6 -77 24 -26 22 -28 30 -28 94 0 60 3 74 24 96
23 25 54 36 79 30 8 -2 20 -4 28 -4z m663 -14 c19 -15 41 -69 41 -101 0 -25
-1 -25 -75 -25 -81 0 -93 -10 -55 -45 15 -14 29 -16 63 -11 39 6 45 4 50 -13
6 -25 -9 -31 -79 -31 -44 0 -59 5 -79 24 -31 31 -42 104 -23 154 23 62 108 88
157 48z m619 9 c32 -9 52 -55 52 -119 0 -44 -5 -60 -26 -85 -22 -27 -32 -31
-75 -31 -39 0 -55 5 -74 24 -62 62 -33 208 43 219 29 4 43 3 80 -8z m345 -15
c25 -24 38 -86 27 -135 -12 -55 -49 -85 -106 -85 l-44 0 0 -45 c0 -41 -2 -45
-25 -45 l-25 0 0 149 c0 82 -3 157 -7 167 -5 15 -1 16 33 12 21 -3 48 -2 59 2
27 11 66 2 88 -20z m273 20 c8 0 26 -11 39 -25 19 -18 25 -35 25 -70 l0 -45
-70 0 c-63 0 -70 -2 -70 -20 0 -28 34 -42 85 -34 41 6 45 4 45 -14 0 -11 -7
-23 -16 -26 -25 -10 -104 -7 -125 4 -54 29 -66 155 -19 205 23 24 53 35 78 29
8 -2 20 -4 28 -4z m-5464 -92 c3 -100 8 -108 64 -94 23 6 24 10 24 96 0 89 0
90 25 90 l25 0 0 -120 0 -120 -25 0 c-14 0 -25 5 -25 10 0 7 -6 7 -19 0 -31
-16 -79 -12 -101 10 -17 17 -20 33 -20 120 0 100 0 100 25 100 24 0 24 -2 27
-92z m3817 -6 c13 -51 27 -89 31 -85 4 4 17 47 30 96 22 82 24 87 50 87 l27 0
-32 -117 -31 -118 -46 -3 -45 -3 -28 103 c-15 57 -30 111 -33 121 -4 15 0 18
24 15 28 -3 30 -7 53 -96z m1933 87 c2 -7 12 -7 31 0 43 17 57 14 57 -12 0
-19 -8 -25 -45 -35 l-45 -12 0 -60 0 -60 40 0 c36 0 40 -2 40 -25 0 -25 -1
-25 -85 -25 -84 0 -85 0 -85 25 0 18 5 25 20 25 18 0 20 7 20 75 0 68 -2 75
-20 75 -13 0 -20 7 -20 20 0 17 7 20 44 20 24 0 46 -5 48 -11z"/>
<path d="M2010 3545 l0 -115 68 0 c111 0 162 38 162 124 0 30 -7 45 -34 72
-33 33 -36 34 -115 34 l-81 0 0 -115z"/>
<path d="M3246 3505 c-15 -50 -31 -103 -36 -119 -18 -54 -16 -56 65 -56 41 0
75 1 75 3 0 1 -18 60 -39 132 l-38 129 -27 -89z"/>
<path d="M5420 2731 l0 -121 33 0 c55 0 72 28 72 121 0 90 -10 106 -68 116
l-37 6 0 -122z"/>
<path d="M4167 2653 c-4 -3 -7 -15 -7 -25 0 -14 8 -18 33 -18 34 0 57 15 57
37 0 14 -71 19 -83 6z"/>
<path d="M5762 2748 c-7 -7 -12 -20 -12 -30 0 -15 8 -18 45 -18 49 0 59 15 29
44 -18 19 -45 21 -62 4z"/>
<path d="M6396 2744 c-30 -29 -20 -44 29 -44 37 0 45 3 45 18 0 39 -45 55 -74
26z"/>
<path d="M7026 2744 c-25 -25 -21 -109 5 -128 45 -31 85 17 72 88 -9 51 -47
71 -77 40z"/>
<path d="M7353 2748 c-20 -10 -23 -19 -23 -75 0 -67 4 -71 60 -63 39 4 54 85
24 128 -17 24 -28 26 -61 10z"/>
<path d="M7662 2748 c-7 -7 -12 -20 -12 -30 0 -15 8 -18 45 -18 49 0 59 15 29
44 -18 19 -45 21 -62 4z"/>
</g>
</svg>
