<svg xmlns="http://www.w3.org/2000/svg" version="1.1" xmlns:xlink="http://www.w3.org/1999/xlink" xmlns:svgjs="http://svgjs.dev/svgjs" width="2000" height="616" viewBox="0 0 2000 616"><g transform="matrix(1,0,0,1,-1.2121212121212466,0.11566092306412656)"><svg viewBox="0 0 396 122" data-background-color="#111827" preserveAspectRatio="xMidYMid meet" height="616" width="2000" xmlns="http://www.w3.org/2000/svg" xmlns:xlink="http://www.w3.org/1999/xlink"><defs></defs><g id="tight-bounds" transform="matrix(1,0,0,1,0.2400000000000091,-0.022906871126338046)"><svg viewBox="0 0 395.52 122.0455157959124" height="122.0455157959124" width="395.52"><g><svg viewBox="0 0 602.5397288538138 185.9255461051095" height="122.0455157959124" width="395.52"><g transform="matrix(1,0,0,1,207.01972885381383,55.25429954333714)"><svg viewBox="0 0 395.52 75.41694701843522" height="75.41694701843522" width="395.52"><g><svg viewBox="0 0 395.52 75.41694701843522" height="75.41694701843522" width="395.52"><g><svg viewBox="0 0 395.52 44.67667774086378" height="44.67667774086378" width="395.52"><g transform="matrix(1,0,0,1,0,0)"><svg width="395.52" viewBox="3.7100000381469727 -36.040000915527344 323.32000732421875 36.53000259399414" height="44.67667774086378" data-palette-color="#ffffff"><path d="M9.57-13.79L15.58-13.79 22.39 0 28.66 0 28.66-0.32 21.07-15.19Q22.53-15.84 23.73-16.75 24.93-17.65 25.78-18.85L25.78-18.85Q26.64-20.04 27.11-21.53 27.59-23.02 27.59-24.85L27.59-24.85Q27.59-27.51 26.66-29.5 25.73-31.49 24.07-32.84L24.07-32.84Q22.39-34.16 20.07-34.84 17.75-35.52 14.99-35.55L14.99-35.55 3.71-35.55 3.71 0 9.57 0 9.57-13.79ZM15.06-18.58L9.57-18.58 9.57-30.76 14.99-30.76Q16.5-30.74 17.72-30.36 18.95-29.98 19.8-29.25L19.8-29.25Q20.73-28.47 21.2-27.31 21.68-26.15 21.68-24.61L21.68-24.61Q21.68-23.24 21.24-22.17 20.8-21.09 20.02-20.36L20.02-20.36Q19.14-19.51 17.88-19.06 16.63-18.6 15.06-18.58L15.06-18.58ZM55.47-35.55L34.52-35.55 34.52-30.69 41.94-30.69 41.94-4.83 34.52-4.83 34.52 0 55.47 0 55.47-4.83 47.87-4.83 47.87-30.69 55.47-30.69 55.47-35.55ZM69.75-8.18L80.9-8.18 83.3 0 89.37 0 78-35.55 72.8-35.55 61.23 0 67.33 0 69.75-8.18ZM79.46-13.21L71.24-13.21 75.39-27.27 79.46-13.21ZM110.71 0L116.59 0 116.59-35.55 110.69-35.55 110.64-11.18 99.16-35.55 93.21-35.55 93.21 0 99.14 0 99.16-24.46 110.71 0ZM165-20.34L160.61-35.55 153.33-35.55 153.33 0 158.83 0 158.83-12.06 158.51-27.34 163.46-10.96 166.52-10.96 171.98-27.93 171.64-12.06 171.64 0 177.16 0 177.16-35.55 169.86-35.55 165-20.34ZM205.48-35.55L184.53-35.55 184.53-30.69 191.95-30.69 191.95-4.83 184.53-4.83 184.53 0 205.48 0 205.48-4.83 197.89-4.83 197.89-30.69 205.48-30.69 205.48-35.55ZM237.48-4.37L237.48-4.37 237.43-17.97 225.23-17.97 225.23-13.4 231.67-13.4 231.65-6.3Q231.26-5.79 230.6-5.41 229.94-5.03 229.16-4.79L229.16-4.79Q228.35-4.54 227.47-4.43 226.59-4.32 225.74-4.32L225.74-4.32Q224.3-4.35 223.16-4.81 222.03-5.27 221.17-6.13L221.17-6.13Q220.49-6.79 219.99-7.64 219.49-8.5 219.12-9.47L219.12-9.47Q218.66-10.77 218.43-12.28 218.2-13.79 218.2-15.48L218.2-15.48 218.2-20.07Q218.2-21.51 218.37-22.88 218.54-24.24 218.9-25.44L218.9-25.44Q219.32-26.81 219.97-27.92 220.61-29.03 221.49-29.79L221.49-29.79Q222.25-30.44 223.2-30.82 224.15-31.2 225.28-31.2L225.28-31.2Q226.81-31.2 227.95-30.76 229.08-30.32 229.87-29.49L229.87-29.49Q230.6-28.71 231.04-27.58 231.48-26.44 231.7-25.05L231.7-25.05 237.46-25.05Q237.21-27.59 236.31-29.63 235.41-31.67 233.84-33.11L233.84-33.11Q232.31-34.52 230.13-35.28 227.96-36.04 225.15-36.04L225.15-36.04Q223.08-36.04 221.31-35.45 219.54-34.86 218.07-33.79L218.07-33.79Q216.73-32.76 215.68-31.37 214.63-29.98 213.87-28.3L213.87-28.3Q213.09-26.51 212.69-24.41 212.29-22.31 212.26-20.02L212.26-20.02 212.26-15.48Q212.29-13.11 212.73-10.96 213.17-8.81 214.02-7.03L214.02-7.03Q214.78-5.32 215.91-3.93 217.05-2.54 218.49-1.56L218.49-1.56Q219.93-0.59 221.71-0.05 223.49 0.49 225.54 0.49L225.54 0.49Q227.77 0.49 229.72 0.04 231.67-0.42 233.33-1.22L233.33-1.22Q234.65-1.86 235.7-2.67 236.75-3.49 237.48-4.37ZM266.8-11.77L266.78-35.55 260.99-35.55 260.94-11.77Q260.89-10.11 260.5-8.73 260.11-7.35 259.36-6.35L259.36-6.35Q258.6-5.37 257.49-4.85 256.38-4.32 254.94-4.32L254.94-4.32Q253.52-4.32 252.46-4.85 251.4-5.37 250.66-6.3L250.66-6.3Q249.91-7.28 249.52-8.68 249.13-10.08 249.1-11.77L249.1-11.77 249.05-35.55 243.27-35.55 243.22-11.77Q243.24-9.01 244.08-6.74 244.93-4.47 246.46-2.86L246.46-2.86Q247.98-1.25 250.13-0.38 252.27 0.49 254.94 0.49L254.94 0.49Q257.65 0.49 259.83-0.39 262.02-1.27 263.58-2.88L263.58-2.88Q265.12-4.49 265.96-6.75 266.8-9.01 266.8-11.77L266.8-11.77ZM279.86-15.94L294.56-15.94 294.56-20.68 279.86-20.68 279.86-30.69 296.9-30.69 296.9-35.55 273.98-35.55 273.98 0 297.02 0 297.02-4.83 279.86-4.83 279.86-15.94ZM327.03-4.83L310.06-4.83 310.06-35.55 304.17-35.55 304.17 0 327.03 0 327.03-4.83Z" opacity="1" transform="matrix(1,0,0,1,0,0)" fill="#ffffff" class="undefined-text-0" data-fill-palette-color="primary" id="text-0"></path></svg></g></svg></g><g transform="matrix(1,0,0,1,0,55.22376911521594)"><svg viewBox="0 0 232.209792 20.193177903219276" height="20.193177903219276" width="232.209792"><g transform="matrix(1,0,0,1,0,0)"><svg width="232.209792" viewBox="3.200000047683716 -33.349998474121094 493.8499755859375 42.94999694824219" height="20.193177903219276" data-palette-color="#ffffff"><path d="M8.4 0L3.2 0 3.2-32.75 22.4-32.75 22.4-28.05 8.4-28.05 8.4-16.95 20.35-16.95 20.35-12.45 8.4-12.45 8.4 0ZM47 0L42 0 41.9-1.75Q37.9 0.5 35.4 0.5L35.4 0.5Q31.35 0.5 29.5-1.83 27.65-4.15 27.65-9.25L27.65-9.25 27.65-23.75 32.8-23.75 32.8-9.55Q32.8-4.4 36.15-4.4L36.15-4.4Q38.8-4.4 41.85-6.45L41.85-6.45 41.85-23.75 47-23.75 47 0ZM60.4-28.8L54.95-28.75 54.9-33.3 65.55-33.35 65.55-4.5 71.15-4.5 71.15 0 54.75 0 54.75-4.5 60.4-4.5 60.4-28.8ZM85.39-28.8L79.94-28.75 79.89-33.3 90.54-33.35 90.54-4.5 96.14-4.5 96.14 0 79.74 0 79.74-4.5 85.39-4.5 85.39-28.8ZM127.09-24L127.09-24Q127.09-33.25 138.19-33.25L138.19-33.25Q142.09-33.25 147.09-31.5L147.09-31.5 145.94-26.95Q140.84-28.55 137.91-28.58 134.99-28.6 133.69-27.6 132.39-26.6 132.39-24.1L132.39-24.1Q132.39-22.4 133.84-21.23 135.29-20.05 138.74-19.15L138.74-19.15Q143.99-17.75 145.94-15.55 147.89-13.35 147.89-9L147.89-9Q147.89 0.45 136.59 0.45L136.59 0.45Q132.84 0.45 127.14-1.15L127.14-1.15 128.19-5.9Q128.19-5.85 129.74-5.45L129.74-5.45Q134.59-4.2 137.26-4.2 139.94-4.2 141.26-5.55 142.59-6.9 142.59-8.95 142.59-11 141.46-12.1 140.34-13.2 137.34-14.05L137.34-14.05Q131.94-15.55 129.51-17.75 127.09-19.95 127.09-24ZM156.99-9.1L156.99-19.15 153.19-19.15 153.19-23.75 156.99-23.75 156.99-29.45 162.14-29.95 162.14-23.75 171.04-23.75 171.04-19.15 162.14-19.15 162.14-9.1Q162.14-6.35 162.69-5.25L162.69-5.25Q163.29-4.15 165.29-4.15 167.29-4.15 170.59-4.95L170.59-4.95 171.44-0.45Q167.64 0.55 164.94 0.55L164.94 0.55Q160.14 0.55 158.56-1.6 156.99-3.75 156.99-9.1L156.99-9.1ZM185.78-4.3L185.78-4.3Q187.18-4.3 188.88-4.95 190.58-5.6 191.58-6.4L191.58-6.4 191.58-9.9Q188.58-10.15 186.68-10.15L186.68-10.15Q182.53-10.15 182.53-7.05L182.53-7.05Q182.53-4.3 185.78-4.3ZM184.98 0.55L184.98 0.55Q176.98 0.55 176.98-7.05L176.98-7.05Q176.98-11.1 179.56-12.73 182.13-14.35 186.68-14.35L186.68-14.35Q188.83-14.35 191.58-14.1L191.58-14.1Q191.58-17.1 190.73-18.2 189.88-19.3 187.78-19.3 185.68-19.3 182.88-18.8 180.08-18.3 178.58-17.8L178.58-17.8 177.63-22.55Q182.88-24.15 187.88-24.15 192.88-24.15 194.81-21.95 196.73-19.75 196.73-14.5L196.73-14.5 196.73-4.35 197.28 0.05 192.13 0.55 191.63-1.75Q187.43 0.55 184.98 0.55ZM221.53-23.25L221.53-23.25 220.78-18.45Q217.48-19.35 214.38-19.35 211.28-19.35 209.88-17.63 208.48-15.9 208.48-12.1 208.48-8.3 209.68-6.28 210.88-4.25 214.23-4.25 217.58-4.25 220.78-5.15L220.78-5.15 221.53-0.35Q218.03 0.65 214.08 0.65L214.08 0.65Q202.93 0.65 202.93-11.8 202.93-24.25 214.03-24.25L214.03-24.25Q218.18-24.25 221.53-23.25ZM243.23-23.75L243.23-23.75 248.78-23.75Q243.18-14.65 241.48-12.65L241.48-12.65Q242.43-11.3 243.83-9.05L243.83-9.05 249.23 0 243.28 0 240.93-4.2Q238.58-8.4 237.48-10.15L237.48-10.15 233.98-9.75 233.98 0 228.83 0 228.83-33.35 233.98-33.35 233.98-14.2 237.38-14.55Q238.68-16.25 240.93-19.98 243.18-23.7 243.23-23.75ZM284.57 0L276.87 0 276.87-32.75 284.67-32.75Q288.62-32.75 291.05-32.1 293.47-31.45 295.17-29.65 296.87-27.85 297.57-24.68 298.27-21.5 298.27-15.68 298.27-9.85 296.85-6.3 295.42-2.75 292.57-1.38 289.72 0 284.57 0L284.57 0ZM290.97-6.65Q292.12-7.95 292.55-10.23 292.97-12.5 292.97-16.43 292.97-20.35 292.62-22.6 292.27-24.85 291.15-26.18 290.02-27.5 288.37-27.88 286.72-28.25 283.67-28.25L283.67-28.25 282.07-28.25 282.07-4.5 283.57-4.5Q286.47-4.5 288.15-4.93 289.82-5.35 290.97-6.65ZM302.42-11.85Q302.42-17.9 305.12-21.03 307.82-24.15 312.62-24.15 317.42-24.15 320.05-21.33 322.67-18.5 322.77-13.05L322.77-13.05 322.57-9.35 307.97-9.35Q308.42-3.95 313.37-3.95L313.37-3.95Q316.82-3.95 320.67-5.2L320.67-5.2 321.72-0.85Q320.12-0.3 317.57 0.13 315.02 0.55 313.37 0.55L313.37 0.55Q302.42 0.55 302.42-11.85L302.42-11.85ZM312.82-19.5L312.82-19.5Q310.47-19.5 309.3-18.13 308.12-16.75 307.97-13.55L307.97-13.55 317.22-13.55Q317.22-19.5 312.82-19.5ZM333.12 0L326.62-23.75 332.12-23.75 337.17-4.55 338.07-4.55 342.92-23.75 348.37-23.75 342.02 0 333.12 0ZM352.42-11.85Q352.42-17.9 355.12-21.03 357.82-24.15 362.62-24.15 367.42-24.15 370.04-21.33 372.67-18.5 372.77-13.05L372.77-13.05 372.57-9.35 357.97-9.35Q358.42-3.95 363.37-3.95L363.37-3.95Q366.82-3.95 370.67-5.2L370.67-5.2 371.72-0.85Q370.12-0.3 367.57 0.13 365.02 0.55 363.37 0.55L363.37 0.55Q352.42 0.55 352.42-11.85L352.42-11.85ZM362.82-19.5L362.82-19.5Q360.47-19.5 359.29-18.13 358.12-16.75 357.97-13.55L357.97-13.55 367.22-13.55Q367.22-19.5 362.82-19.5ZM385.36-28.8L379.91-28.75 379.86-33.3 390.51-33.35 390.51-4.5 396.11-4.5 396.11 0 379.71 0 379.71-4.5 385.36-4.5 385.36-28.8ZM404.61-21.13Q407.16-24.15 412.46-24.15 417.76-24.15 420.31-21.13 422.86-18.1 422.86-11.8 422.86-5.5 420.31-2.43 417.76 0.65 412.46 0.65 407.16 0.65 404.61-2.43 402.06-5.5 402.06-11.8 402.06-18.1 404.61-21.13ZM408.64-17.55Q407.61-15.8 407.61-11.8 407.61-7.8 408.66-6 409.71-4.2 412.46-4.2 415.21-4.2 416.26-6 417.31-7.8 417.31-11.8 417.31-15.8 416.29-17.55 415.26-19.3 412.46-19.3 409.66-19.3 408.64-17.55ZM432.96 9.6L427.81 9.6 427.81-19.45 427.51-23.75 432.51-24.1 432.81-21.9Q436.16-24.15 438.76-24.15L438.76-24.15Q443.81-24.15 446.18-21.18 448.56-18.2 448.56-11.9 448.56-5.6 445.66-2.53 442.76 0.55 437.41 0.55L437.41 0.55Q435.61 0.55 432.96-0.5L432.96-0.5 432.96 9.6ZM438.56-19.35L438.56-19.35Q436.26-19.35 432.96-17.15L432.96-17.15 432.96-5.25Q435.36-4.2 437.31-4.2L437.31-4.2Q443.01-4.2 443.01-11.8 443.01-19.4 438.56-19.35ZM452.41-11.85Q452.41-17.9 455.11-21.03 457.81-24.15 462.61-24.15 467.41-24.15 470.03-21.33 472.66-18.5 472.76-13.05L472.76-13.05 472.56-9.35 457.96-9.35Q458.41-3.95 463.36-3.95L463.36-3.95Q466.81-3.95 470.66-5.2L470.66-5.2 471.71-0.85Q470.11-0.3 467.56 0.13 465.01 0.55 463.36 0.55L463.36 0.55Q452.41 0.55 452.41-11.85L452.41-11.85ZM462.81-19.5L462.81-19.5Q460.46-19.5 459.28-18.13 458.11-16.75 457.96-13.55L457.96-13.55 467.21-13.55Q467.21-19.5 462.81-19.5ZM482.85-19.15L479-19.15 479-23.75 488-23.75 488.1-21.35Q489.7-22.25 492.28-23.08 494.85-23.9 497.05-24.15L497.05-24.15 497.05-19.15Q495.1-18.95 492.4-18.1 489.7-17.25 488.1-16.35L488.1-16.35 488.1-4.5 495.4-4.5 495.4 0 479 0 479-4.6 482.85-4.6 482.85-19.15Z" opacity="1" transform="matrix(1,0,0,1,0,0)" fill="#ffffff" class="undefined-text-1" data-fill-palette-color="secondary" id="text-1"></path></svg></g></svg></g></svg></g></svg></g><g><svg viewBox="0 0 185.9255461051095 185.9255461051095" height="185.9255461051095" width="185.9255461051095"><g><svg></svg></g><g id="icon-0"><svg viewBox="0 0 185.9255461051095 185.9255461051095" height="185.9255461051095" width="185.9255461051095"><g><path d="M0 92.963c0-51.342 41.621-92.963 92.963-92.963 51.342 0 92.963 41.621 92.963 92.963 0 51.342-41.621 92.963-92.963 92.963-51.342 0-92.963-41.621-92.963-92.963zM92.963 181.897c49.117 0 88.934-39.817 88.934-88.934 0-49.117-39.817-88.934-88.934-88.934-49.117 0-88.934 39.817-88.934 88.934 0 49.117 39.817 88.934 88.934 88.934z" data-fill-palette-color="accent" fill="#b2fcfb" stroke="transparent"></path></g><g transform="matrix(1,0,0,1,37.05770476133358,57.15464687698107)"><svg viewBox="0 0 111.81013658244234 71.61625235114737" height="71.61625235114737" width="111.81013658244234"><g><svg xmlns="http://www.w3.org/2000/svg" xmlns:xlink="http://www.w3.org/1999/xlink" version="1.1" x="0" y="0" viewBox="220.49996948242188 20.799999237060547 92.89376831054688 59.500003814697266" enable-background="new 216.8 0 100 100" xml:space="preserve" height="71.61625235114737" width="111.81013658244234" class="icon-x-0" data-fill-palette-color="accent" id="x-0"><g fill="#b2fcfb" data-fill-palette-color="accent"><path d="M285.6 67.4c0-3-2.3-4.4-5.2-4.4h-15.9l-6.7-18.4 0 0c-1-3.2-4-5.6-7.6-5.6-1.3 0-2.5 0.3-3.6 0.9l0 0c-14.5 7.3-22.9 20.7-26.1 40.4l19 0c0.5-8.3 2-18 8.8-23.8l7.8 11.7 0 0c0.9 1.7 2.7 3 4.7 3h19.6C283.4 71.2 285.6 70.4 285.6 67.4z" fill="#b2fcfb" data-fill-palette-color="accent"></path></g><path d="M290.2 76.3c-0.4-0.8-2.3-4-6.2-4-4.4 0-6.2 4.1-6.3 4.2-0.1 0.3-0.1 0.7 0.1 0.9 0.2 0.3 0.5 0.5 0.8 0.5h10.7c0 0 0 0 0 0 0.6 0 1-0.4 1-1C290.4 76.7 290.4 76.4 290.2 76.3z" fill="#b2fcfb" data-fill-palette-color="accent"></path><path d="M311.2 28.5c-1.8-0.8-3.8 0.1-4.6 1.9l-15.1 35.4c-0.8 1.8 0.1 3.8 1.9 4.6 0.4 0.2 0.9 0.3 1.4 0.3 1.4 0 2.7-0.8 3.2-2.1l2.7-6.4 5.1 10.6h-7.1c-1.4 0-2.5 1.1-2.5 2.5s1.1 2.5 2.5 2.5h11.1c0.9 0 1.7-0.4 2.1-1.2 0.5-0.7 0.5-1.6 0.1-2.4L303.4 56l9.7-22.9C313.9 31.3 313 29.3 311.2 28.5z" fill="#b2fcfb" data-fill-palette-color="accent"></path><path fill="#b2fcfb" d="M264 20.8c-2.5 0-4.8 0.9-6.5 2.4-0.9-1.5-2.5-2.4-4.4-2.4-2.9 0-5.2 2.3-5.2 5.2 0 2.9 2.3 5.2 5.2 5.2 0.3 0 0.6 0 0.9-0.1 0.2 5.4 4.6 9.6 10 9.6 5.5 0 10-4.5 10-10S269.5 20.8 264 20.8z" data-fill-palette-color="accent"></path></svg></g></svg></g></svg></g></svg></g></svg></g></svg><rect width="395.52" height="122.0455157959124" fill="none" stroke="none" visibility="hidden"></rect></g></svg></g></svg>