<svg xmlns="http://www.w3.org/2000/svg" version="1.1" xmlns:xlink="http://www.w3.org/1999/xlink" xmlns:svgjs="http://svgjs.dev/svgjs" width="1000" height="750" viewBox="0 0 1000 750"><rect width="1000" height="750" fill="#ffffff"></rect><g transform="matrix(0.5845845845845846,0,0,0.5845845845845846,207.58158741832204,82.87400583090377)"><svg viewBox="0 0 343 343" data-background-color="#111827" preserveAspectRatio="xMidYMid meet" height="999" width="1000" xmlns="http://www.w3.org/2000/svg" xmlns:xlink="http://www.w3.org/1999/xlink"><defs></defs><g id="tight-bounds" transform="matrix(1,0,0,1,0.0740000000000407,0.07400000000001228)"><svg viewBox="0 0 342.85155851775386 342.85155851775386" height="342.85155851775386" width="342.85155851775386"><g><svg></svg></g><g><svg viewBox="0 0 342.85155851775386 342.85155851775386" height="342.85155851775386" width="342.85155851775386"><g><path d="M0 171.426c0-94.676 76.75-171.426 171.426-171.426 94.676 0 171.426 76.75 171.426 171.426 0 94.676-76.75 171.426-171.426 171.426-94.676 0-171.426-76.75-171.426-171.426zM171.426 340.68c93.477 0 169.254-75.778 169.254-169.254 0-93.477-75.778-169.254-169.254-169.255-93.477 0-169.254 75.778-169.255 169.255 0 93.477 75.778 169.254 169.255 169.254z" data-fill-palette-color="tertiary" fill="#000000" stroke="transparent"></path><ellipse rx="164.56874808852186" ry="164.56874808852186" cx="171.42577925887693" cy="171.42577925887693" fill="#000000" stroke="transparent" stroke-width="0" fill-opacity="1" data-fill-palette-color="tertiary"></ellipse></g><g transform="matrix(1,0,0,1,64.84655864529837,84.56767517776005)"><svg viewBox="0 0 213.1584412271571 173.71620816223376" height="173.71620816223376" width="213.1584412271571"><g><svg viewBox="0 0 213.1584412271571 173.71620816223376" height="173.71620816223376" width="213.1584412271571"><g><svg viewBox="0 0 213.15844122715714 173.71620816223378" height="173.71620816223376" width="213.1584412271571"><g transform="matrix(1,0,0,1,0,129.07432675822312)"><svg viewBox="0 0 213.15844122715714 44.64188140401066" height="44.64188140401066" width="213.15844122715714"><g><svg viewBox="0 0 213.15844122715714 44.64188140401066" height="44.64188140401066" width="213.15844122715714"><g><svg viewBox="0 0 213.15844122715714 24.077697680143995" height="24.077697680143995" width="213.15844122715714"><g transform="matrix(1,0,0,1,0,0)"><svg width="213.15844122715714" viewBox="3.71 -36.04 323.32 36.53" height="24.077697680143995" data-palette-color="#111827"><path d="M9.57-13.79L15.58-13.79 22.39 0 28.66 0 28.66-0.32 21.07-15.19Q22.53-15.84 23.73-16.75 24.93-17.65 25.78-18.85L25.78-18.85Q26.64-20.04 27.11-21.53 27.59-23.02 27.59-24.85L27.59-24.85Q27.59-27.51 26.66-29.5 25.73-31.49 24.07-32.84L24.07-32.84Q22.39-34.16 20.07-34.84 17.75-35.52 14.99-35.55L14.99-35.55 3.71-35.55 3.71 0 9.57 0 9.57-13.79ZM15.06-18.58L9.57-18.58 9.57-30.76 14.99-30.76Q16.5-30.74 17.72-30.36 18.95-29.98 19.8-29.25L19.8-29.25Q20.73-28.47 21.2-27.31 21.68-26.15 21.68-24.61L21.68-24.61Q21.68-23.24 21.24-22.17 20.8-21.09 20.02-20.36L20.02-20.36Q19.14-19.51 17.88-19.06 16.63-18.6 15.06-18.58L15.06-18.58ZM55.47-35.55L34.52-35.55 34.52-30.69 41.94-30.69 41.94-4.83 34.52-4.83 34.52 0 55.47 0 55.47-4.83 47.87-4.83 47.87-30.69 55.47-30.69 55.47-35.55ZM69.75-8.18L80.9-8.18 83.3 0 89.37 0 78-35.55 72.8-35.55 61.23 0 67.33 0 69.75-8.18ZM79.46-13.21L71.24-13.21 75.39-27.27 79.46-13.21ZM110.71 0L116.59 0 116.59-35.55 110.69-35.55 110.64-11.18 99.16-35.55 93.21-35.55 93.21 0 99.14 0 99.16-24.46 110.71 0ZM165-20.34L160.61-35.55 153.33-35.55 153.33 0 158.83 0 158.83-12.06 158.51-27.34 163.46-10.96 166.52-10.96 171.98-27.93 171.64-12.06 171.64 0 177.16 0 177.16-35.55 169.86-35.55 165-20.34ZM205.48-35.55L184.53-35.55 184.53-30.69 191.95-30.69 191.95-4.83 184.53-4.83 184.53 0 205.48 0 205.48-4.83 197.89-4.83 197.89-30.69 205.48-30.69 205.48-35.55ZM237.48-4.37L237.48-4.37 237.43-17.97 225.23-17.97 225.23-13.4 231.67-13.4 231.65-6.3Q231.26-5.79 230.6-5.41 229.94-5.03 229.16-4.79L229.16-4.79Q228.35-4.54 227.47-4.43 226.59-4.32 225.74-4.32L225.74-4.32Q224.3-4.35 223.16-4.81 222.03-5.27 221.17-6.13L221.17-6.13Q220.49-6.79 219.99-7.64 219.49-8.5 219.12-9.47L219.12-9.47Q218.66-10.77 218.43-12.28 218.2-13.79 218.2-15.48L218.2-15.48 218.2-20.07Q218.2-21.51 218.37-22.88 218.54-24.24 218.9-25.44L218.9-25.44Q219.32-26.81 219.97-27.92 220.61-29.03 221.49-29.79L221.49-29.79Q222.25-30.44 223.2-30.82 224.15-31.2 225.28-31.2L225.28-31.2Q226.81-31.2 227.95-30.76 229.08-30.32 229.87-29.49L229.87-29.49Q230.6-28.71 231.04-27.58 231.48-26.44 231.7-25.05L231.7-25.05 237.46-25.05Q237.21-27.59 236.31-29.63 235.41-31.67 233.84-33.11L233.84-33.11Q232.31-34.52 230.13-35.28 227.96-36.04 225.15-36.04L225.15-36.04Q223.08-36.04 221.31-35.45 219.54-34.86 218.07-33.79L218.07-33.79Q216.73-32.76 215.68-31.37 214.63-29.98 213.87-28.3L213.87-28.3Q213.09-26.51 212.69-24.41 212.29-22.31 212.26-20.02L212.26-20.02 212.26-15.48Q212.29-13.11 212.73-10.96 213.17-8.81 214.02-7.03L214.02-7.03Q214.78-5.32 215.91-3.93 217.05-2.54 218.49-1.56L218.49-1.56Q219.93-0.59 221.71-0.05 223.49 0.49 225.54 0.49L225.54 0.49Q227.77 0.49 229.72 0.04 231.67-0.42 233.33-1.22L233.33-1.22Q234.65-1.86 235.7-2.67 236.75-3.49 237.48-4.37ZM266.8-11.77L266.78-35.55 260.99-35.55 260.94-11.77Q260.89-10.11 260.5-8.73 260.11-7.35 259.36-6.35L259.36-6.35Q258.6-5.37 257.49-4.85 256.38-4.32 254.94-4.32L254.94-4.32Q253.52-4.32 252.46-4.85 251.4-5.37 250.66-6.3L250.66-6.3Q249.91-7.28 249.52-8.68 249.13-10.08 249.1-11.77L249.1-11.77 249.05-35.55 243.27-35.55 243.22-11.77Q243.24-9.01 244.08-6.74 244.93-4.47 246.46-2.86L246.46-2.86Q247.98-1.25 250.13-0.38 252.27 0.49 254.94 0.49L254.94 0.49Q257.65 0.49 259.83-0.39 262.02-1.27 263.58-2.88L263.58-2.88Q265.12-4.49 265.96-6.75 266.8-9.01 266.8-11.77L266.8-11.77ZM279.86-15.94L294.56-15.94 294.56-20.68 279.86-20.68 279.86-30.69 296.9-30.69 296.9-35.55 273.98-35.55 273.98 0 297.02 0 297.02-4.83 279.86-4.83 279.86-15.94ZM327.03-4.83L310.06-4.83 310.06-35.55 304.17-35.55 304.17 0 327.03 0 327.03-4.83Z" opacity="1" transform="matrix(1,0,0,1,0,0)" fill="#ffffff" class="undefined-text-0" data-fill-palette-color="quaternary" id="text-0"></path></svg></g></svg></g><g transform="matrix(1,0,0,1,0,29.76186423768167)"><svg viewBox="0 0 213.15844122715714 14.880017166328988" height="14.880017166328988" width="213.15844122715714"><g transform="matrix(1,0,0,1,0,0)"><svg width="213.15844122715714" viewBox="3.2 -33.35 615.27 42.95" height="14.880017166328988" data-palette-color="#111827"><path d="M8.4 0L3.2 0 3.2-32.75 22.4-32.75 22.4-28.05 8.4-28.05 8.4-16.95 20.35-16.95 20.35-12.45 8.4-12.45 8.4 0ZM53.39 0L48.39 0 48.29-1.75Q44.29 0.5 41.79 0.5L41.79 0.5Q37.74 0.5 35.89-1.83 34.04-4.15 34.04-9.25L34.04-9.25 34.04-23.75 39.19-23.75 39.19-9.55Q39.19-4.4 42.54-4.4L42.54-4.4Q45.19-4.4 48.24-6.45L48.24-6.45 48.24-23.75 53.39-23.75 53.39 0ZM73.18-28.8L67.73-28.75 67.68-33.3 78.33-33.35 78.33-4.5 83.93-4.5 83.93 0 67.53 0 67.53-4.5 73.18-4.5 73.18-28.8ZM104.56-28.8L99.11-28.75 99.06-33.3 109.71-33.35 109.71-4.5 115.31-4.5 115.31 0 98.91 0 98.91-4.5 104.56-4.5 104.56-28.8ZM159.04-24L159.04-24Q159.04-33.25 170.14-33.25L170.14-33.25Q174.04-33.25 179.04-31.5L179.04-31.5 177.89-26.95Q172.79-28.55 169.86-28.58 166.94-28.6 165.64-27.6 164.34-26.6 164.34-24.1L164.34-24.1Q164.34-22.4 165.79-21.23 167.24-20.05 170.69-19.15L170.69-19.15Q175.94-17.75 177.89-15.55 179.84-13.35 179.84-9L179.84-9Q179.84 0.45 168.54 0.45L168.54 0.45Q164.79 0.45 159.09-1.15L159.09-1.15 160.14-5.9Q160.14-5.85 161.69-5.45L161.69-5.45Q166.54-4.2 169.21-4.2 171.89-4.2 173.21-5.55 174.54-6.9 174.54-8.95 174.54-11 173.41-12.1 172.29-13.2 169.29-14.05L169.29-14.05Q163.89-15.55 161.46-17.75 159.04-19.95 159.04-24ZM195.33-9.1L195.33-19.15 191.53-19.15 191.53-23.75 195.33-23.75 195.33-29.45 200.48-29.95 200.48-23.75 209.38-23.75 209.38-19.15 200.48-19.15 200.48-9.1Q200.48-6.35 201.03-5.25L201.03-5.25Q201.63-4.15 203.63-4.15 205.63-4.15 208.93-4.95L208.93-4.95 209.78-0.45Q205.98 0.55 203.28 0.55L203.28 0.55Q198.48 0.55 196.9-1.6 195.33-3.75 195.33-9.1L195.33-9.1ZM230.51-4.3L230.51-4.3Q231.91-4.3 233.61-4.95 235.31-5.6 236.31-6.4L236.31-6.4 236.31-9.9Q233.31-10.15 231.41-10.15L231.41-10.15Q227.26-10.15 227.26-7.05L227.26-7.05Q227.26-4.3 230.51-4.3ZM229.71 0.55L229.71 0.55Q221.71 0.55 221.71-7.05L221.71-7.05Q221.71-11.1 224.29-12.73 226.86-14.35 231.41-14.35L231.41-14.35Q233.56-14.35 236.31-14.1L236.31-14.1Q236.31-17.1 235.46-18.2 234.61-19.3 232.51-19.3 230.41-19.3 227.61-18.8 224.81-18.3 223.31-17.8L223.31-17.8 222.36-22.55Q227.61-24.15 232.61-24.15 237.61-24.15 239.54-21.95 241.46-19.75 241.46-14.5L241.46-14.5 241.46-4.35 242.01 0.05 236.86 0.55 236.36-1.75Q232.16 0.55 229.71 0.55ZM272.65-23.25L272.65-23.25 271.9-18.45Q268.6-19.35 265.5-19.35 262.4-19.35 261-17.63 259.6-15.9 259.6-12.1 259.6-8.3 260.8-6.28 262-4.25 265.35-4.25 268.7-4.25 271.9-5.15L271.9-5.15 272.65-0.35Q269.15 0.65 265.2 0.65L265.2 0.65Q254.05 0.65 254.05-11.8 254.05-24.25 265.15-24.25L265.15-24.25Q269.3-24.25 272.65-23.25ZM300.74-23.75L300.74-23.75 306.29-23.75Q300.69-14.65 298.99-12.65L298.99-12.65Q299.94-11.3 301.34-9.05L301.34-9.05 306.74 0 300.79 0 298.44-4.2Q296.09-8.4 294.99-10.15L294.99-10.15 291.49-9.75 291.49 0 286.34 0 286.34-33.35 291.49-33.35 291.49-14.2 294.89-14.55Q296.19-16.25 298.44-19.98 300.69-23.7 300.74-23.75ZM354.86 0L347.16 0 347.16-32.75 354.96-32.75Q358.91-32.75 361.34-32.1 363.76-31.45 365.46-29.65 367.16-27.85 367.86-24.68 368.56-21.5 368.56-15.68 368.56-9.85 367.14-6.3 365.71-2.75 362.86-1.38 360.01 0 354.86 0L354.86 0ZM361.26-6.65Q362.41-7.95 362.84-10.23 363.26-12.5 363.26-16.43 363.26-20.35 362.91-22.6 362.56-24.85 361.44-26.18 360.31-27.5 358.66-27.88 357.01-28.25 353.96-28.25L353.96-28.25 352.36-28.25 352.36-4.5 353.86-4.5Q356.76-4.5 358.44-4.93 360.11-5.35 361.26-6.65ZM379.1-11.85Q379.1-17.9 381.8-21.03 384.5-24.15 389.3-24.15 394.1-24.15 396.73-21.33 399.35-18.5 399.45-13.05L399.45-13.05 399.25-9.35 384.65-9.35Q385.1-3.95 390.05-3.95L390.05-3.95Q393.5-3.95 397.35-5.2L397.35-5.2 398.4-0.85Q396.8-0.3 394.25 0.13 391.7 0.55 390.05 0.55L390.05 0.55Q379.1 0.55 379.1-11.85L379.1-11.85ZM389.5-19.5L389.5-19.5Q387.15-19.5 385.98-18.13 384.8-16.75 384.65-13.55L384.65-13.55 393.9-13.55Q393.9-19.5 389.5-19.5ZM416.19 0L409.69-23.75 415.19-23.75 420.24-4.55 421.14-4.55 425.99-23.75 431.44-23.75 425.09 0 416.19 0ZM441.88-11.85Q441.88-17.9 444.58-21.03 447.28-24.15 452.08-24.15 456.88-24.15 459.5-21.33 462.13-18.5 462.23-13.05L462.23-13.05 462.03-9.35 447.43-9.35Q447.88-3.95 452.83-3.95L452.83-3.95Q456.28-3.95 460.13-5.2L460.13-5.2 461.18-0.85Q459.58-0.3 457.03 0.13 454.48 0.55 452.83 0.55L452.83 0.55Q441.88 0.55 441.88-11.85L441.88-11.85ZM452.28-19.5L452.28-19.5Q449.93-19.5 448.75-18.13 447.58-16.75 447.43-13.55L447.43-13.55 456.68-13.55Q456.68-19.5 452.28-19.5ZM481.21-28.8L475.76-28.75 475.71-33.3 486.36-33.35 486.36-4.5 491.96-4.5 491.96 0 475.56 0 475.56-4.5 481.21-4.5 481.21-28.8ZM506.85-21.13Q509.4-24.15 514.7-24.15 520-24.15 522.55-21.13 525.1-18.1 525.1-11.8 525.1-5.5 522.55-2.43 520 0.65 514.7 0.65 509.4 0.65 506.85-2.43 504.3-5.5 504.3-11.8 504.3-18.1 506.85-21.13ZM510.88-17.55Q509.85-15.8 509.85-11.8 509.85-7.8 510.9-6 511.95-4.2 514.7-4.2 517.45-4.2 518.5-6 519.55-7.8 519.55-11.8 519.55-15.8 518.53-17.55 517.5-19.3 514.7-19.3 511.9-19.3 510.88-17.55ZM541.59 9.6L536.44 9.6 536.44-19.45 536.14-23.75 541.14-24.1 541.44-21.9Q544.79-24.15 547.39-24.15L547.39-24.15Q552.44-24.15 554.81-21.18 557.19-18.2 557.19-11.9 557.19-5.6 554.29-2.53 551.39 0.55 546.04 0.55L546.04 0.55Q544.24 0.55 541.59-0.5L541.59-0.5 541.59 9.6ZM547.19-19.35L547.19-19.35Q544.89-19.35 541.59-17.15L541.59-17.15 541.59-5.25Q543.99-4.2 545.94-4.2L545.94-4.2Q551.64-4.2 551.64-11.8 551.64-19.4 547.19-19.35ZM567.43-11.85Q567.43-17.9 570.13-21.03 572.83-24.15 577.63-24.15 582.43-24.15 585.05-21.33 587.68-18.5 587.78-13.05L587.78-13.05 587.58-9.35 572.98-9.35Q573.43-3.95 578.38-3.95L578.38-3.95Q581.83-3.95 585.68-5.2L585.68-5.2 586.73-0.85Q585.13-0.3 582.58 0.13 580.03 0.55 578.38 0.55L578.38 0.55Q567.43 0.55 567.43-11.85L567.43-11.85ZM577.83-19.5L577.83-19.5Q575.48-19.5 574.3-18.13 573.13-16.75 572.98-13.55L572.98-13.55 582.23-13.55Q582.23-19.5 577.83-19.5ZM604.27-19.15L600.42-19.15 600.42-23.75 609.42-23.75 609.52-21.35Q611.12-22.25 613.69-23.08 616.27-23.9 618.47-24.15L618.47-24.15 618.47-19.15Q616.52-18.95 613.82-18.1 611.12-17.25 609.52-16.35L609.52-16.35 609.52-4.5 616.82-4.5 616.82 0 600.42 0 600.42-4.6 604.27-4.6 604.27-19.15Z" opacity="1" transform="matrix(1,0,0,1,0,0)" fill="#ffffff" class="undefined-text-1" data-fill-palette-color="quaternary" id="text-1"></path></svg></g></svg></g></svg></g></svg></g><g transform="matrix(1,0,0,1,10.258424864482663,0)"><svg viewBox="0 0 192.64159149819181 123.39016020068546" height="123.39016020068546" width="192.64159149819181"><g><svg xmlns="http://www.w3.org/2000/svg" xmlns:xlink="http://www.w3.org/1999/xlink" version="1.1" x="0" y="0" viewBox="220.50000000000009 20.8 92.89374999999993 59.500000000000014" enable-background="new 216.8 0 100 100" xml:space="preserve" height="123.39016020068546" width="192.64159149819181" class="icon-icon-0" data-fill-palette-color="quaternary" id="icon-0"><g fill="#111827" data-fill-palette-color="quaternary"><path d="M285.6 67.4c0-3-2.3-4.4-5.2-4.4h-15.9l-6.7-18.4 0 0c-1-3.2-4-5.6-7.6-5.6-1.3 0-2.5 0.3-3.6 0.9l0 0c-14.5 7.3-22.9 20.7-26.1 40.4l19 0c0.5-8.3 2-18 8.8-23.8l7.8 11.7 0 0c0.9 1.7 2.7 3 4.7 3h19.6C283.4 71.2 285.6 70.4 285.6 67.4z" fill="#ffffff" data-fill-palette-color="quaternary"></path></g><path d="M290.2 76.3c-0.4-0.8-2.3-4-6.2-4-4.4 0-6.2 4.1-6.3 4.2-0.1 0.3-0.1 0.7 0.1 0.9 0.2 0.3 0.5 0.5 0.8 0.5h10.7c0 0 0 0 0 0 0.6 0 1-0.4 1-1C290.4 76.7 290.4 76.4 290.2 76.3z" fill="#ffffff" data-fill-palette-color="quaternary"></path><path d="M311.2 28.5c-1.8-0.8-3.8 0.1-4.6 1.9l-15.1 35.4c-0.8 1.8 0.1 3.8 1.9 4.6 0.4 0.2 0.9 0.3 1.4 0.3 1.4 0 2.7-0.8 3.2-2.1l2.7-6.4 5.1 10.6h-7.1c-1.4 0-2.5 1.1-2.5 2.5s1.1 2.5 2.5 2.5h11.1c0.9 0 1.7-0.4 2.1-1.2 0.5-0.7 0.5-1.6 0.1-2.4L303.4 56l9.7-22.9C313.9 31.3 313 29.3 311.2 28.5z" fill="#ffffff" data-fill-palette-color="quaternary"></path><path fill="#ffffff" d="M264 20.8c-2.5 0-4.8 0.9-6.5 2.4-0.9-1.5-2.5-2.4-4.4-2.4-2.9 0-5.2 2.3-5.2 5.2 0 2.9 2.3 5.2 5.2 5.2 0.3 0 0.6 0 0.9-0.1 0.2 5.4 4.6 9.6 10 9.6 5.5 0 10-4.5 10-10S269.5 20.8 264 20.8z" data-fill-palette-color="quaternary"></path></svg><g></g></g></svg></g><g></g></svg></g></svg></g></svg></g></svg></g></svg><rect width="342.85155851775386" height="342.85155851775386" fill="none" stroke="none" visibility="hidden"></rect></g></svg></g></svg>